{"title":"[MARATHI] Raigadala Jevha Jaag Yete - Drama x264 MP3 [TMB]","uid":8691070,"size":717365816,"categoryP":"video","categoryS":"movies","magnet":"?xt=urn:btih:d5cdaa25cf32eaa54c03aa0d6ff011750d43d282&amp;dn=%5BMARATHI%5D+Raigadala+Jevha+Jaag+Yete+-+Drama+x264+MP3+%5BTMB%5D&amp;tr=udp%3A%2F%2Ftracker.openbittorrent.com%3A80&amp;tr=udp%3A%2F%2Fopen.demonii.com%3A1337&amp;tr=udp%3A%2F%2Ftracker.coppersurfer.tk%3A6969&amp;tr=udp%3A%2F%2Fexodus.desync.com%3A6969","seeders":0,"leechers":1,"uploader":"SJonam","files":2,"time":1373887585,"description":" &lt;a href=&quot;http://desibbrg.org/images/16358683858652693851.gif&quot; rel=&quot;nofollow&quot; target=&quot;_NEW&quot;&gt;http://desibbrg.org/images/16358683858652693851.gif&lt;/a&gt; &lt;a href=&quot;\nhttp://desibbrg.org/images/34211636971419332473.png&quot; rel=&quot;nofollow&quot; target=&quot;_NEW&quot;&gt;\nhttp://desibbrg.org/images/34211636971419332473.png&lt;/a&gt; &lt;a href=&quot;\nhttp://desibbrg.org/images/74630537852640253274.png&quot; rel=&quot;nofollow&quot; target=&quot;_NEW&quot;&gt;\nhttp://desibbrg.org/images/74630537852640253274.png&lt;/a&gt; &lt;a href=&quot;\nhttp://desibbrg.org/images/72678723396221751998.png&quot; rel=&quot;nofollow&quot; target=&quot;_NEW&quot;&gt;\nhttp://desibbrg.org/images/72678723396221751998.png&lt;/a&gt; &lt;a href=&quot;\nhttp://desibbrg.org/images/79208075663165669547.png&quot; rel=&quot;nofollow&quot; target=&quot;_NEW&quot;&gt;\nhttp://desibbrg.org/images/79208075663165669547.png&lt;/a&gt; &lt;a href=&quot;\nhttp://desibbrg.org/images/91921138421137763058.png&quot; rel=&quot;nofollow&quot; target=&quot;_NEW&quot;&gt;\nhttp://desibbrg.org/images/91921138421137763058.png&lt;/a&gt;\n\nInfo - \nRaigadala Jevha Jaag Yete which translates into &quot;When Raigad Fort Comes To Life&quot; is a best superhit historic full stage play written by renowned marathi author Vasant Kanetkar. Raigadala Jevha Jaag Yete is based on the complex relationship between Shivaji Maharaj &amp; his son Sambhaji. The actors are Mohan Joshi, Rujuta Deshmukh, Swati &amp; Avinash Deshmukh. \n\nDirected by Anil Joglekar. \nMusic by Anand Modak. \nSinger: Ravindra Sathe.\n\nMedia Info - \nGeneral\nComplete name                  : Raigadala Jevha Jaag Yete - Drama x264 MP3 [TMB].avi\nFormat                         : AVI\nFormat/Info                    : Audio Video Interleave\nFile size                      : 676 MiB\nDuration                       : 2h 19mn\nOverall bit rate               : 679 Kbps\nWriting application            : Lavf54.63.104\n\nVideo\nFormat                         : AVC\nFormat/Info                    : Advanced Video Codec\nFormat profile                 : &lt;a class=&quot;__cf_email__&quot; href=&quot;/cdn-cgi/l/email-protection&quot; data-cfemail=&quot;753d1c121d3539465b45&quot;&gt;[email&amp;#160;protected]&lt;/a&gt;&lt;script cf-hash='f9e31' type=&quot;text/javascript&quot;&gt;\n/* &lt;![CDATA[ */!function(){try{var t=&quot;currentScript&quot;in document?document.currentScript:function(){for(var t=document.getElementsByTagName(&quot;script&quot;),e=t.length;e--;)if(t[e].getAttribute(&quot;cf-hash&quot;))return t[e]}();if(t&amp;&amp;t.previousSibling){var e,r,n,i,c=t.previousSibling,a=c.getAttribute(&quot;data-cfemail&quot;);if(a){for(e=&quot;&quot;,r=parseInt(a.substr(0,2),16),n=2;a.length-n;n+=2)i=parseInt(a.substr(n,2),16)^r,e+=String.fromCharCode(i);e=document.createTextNode(e),c.parentNode.replaceChild(e,c)}}}catch(u){}}();/* ]]&gt; */&lt;/script&gt;\nFormat settings, CABAC         : Yes\nFormat settings, ReFrames      : 2 frames\nCodec ID                       : H264\nDuration                       : 2h 19mn\nBit rate                       : 411 Kbps\nWidth                          : 656 pixels\nHeight                         : 480 pixels\nDisplay aspect ratio           : 4:3\nFrame rate mode                : Variable\nFrame rate                     : 25.000 fps\nColor space                    : YUV\nChroma subsampling             : 4:2:0\nBit depth                      : 8 bits\nScan type                      : Progressive\nBits/(Pixel*Frame)             : 0.052\nStream size                    : 409 MiB (61%)\nWriting library                : x264 core 129\n\nAudio\nFormat                         : MPEG Audio\nFormat version                 : Version 1\nFormat profile                 : Layer 3\nMode                           : Joint stereo\nMode extension                 : MS Stereo\nCodec ID                       : 55\nCodec ID/Hint                  : MP3\nDuration                       : 2h 19mn\nBit rate mode                  : Constant\nBit rate                       : 256 Kbps\nChannel(s)                     : 2 channels\nSampling rate                  : 44.1 KHz\nCompression mode               : Lossy\nStream size                    : 255 MiB (38%)\nAlignment                      : Aligned on interleaves\nInterleave, duration           : 26 ms (0.65 video frame)\nWriting library                : LAME3.99.5\n\nRipper : Manojvb\n\nSeeding 24x7... Extreme Seeding...\n\n &lt;a href=&quot;\nhttp://desibbrg.org/images/48627592875446061657.gif&quot; rel=&quot;nofollow&quot; target=&quot;_NEW&quot;&gt;\nhttp://desibbrg.org/images/48627592875446061657.gif&lt;/a&gt;\n","torrent":{"xt":"urn:btih:d5cdaa25cf32eaa54c03aa0d6ff011750d43d282","amp;dn":"%5BMARATHI%5D+Raigadala+Jevha+Jaag+Yete+-+Drama+x264+MP3+%5BTMB%5D","amp;tr":["udp%3A%2F%2Ftracker.openbittorrent.com%3A80","udp%3A%2F%2Fopen.demonii.com%3A1337","udp%3A%2F%2Ftracker.coppersurfer.tk%3A6969","udp%3A%2F%2Fexodus.desync.com%3A6969"],"infoHash":"d5cdaa25cf32eaa54c03aa0d6ff011750d43d282","infoHashBuffer":{"type":"Buffer","data":[213,205,170,37,207,50,234,165,76,3,170,13,111,240,17,117,13,67,210,130]},"announce":[],"urlList":[]}}